Coordinates
version=1
nRows=17
nColumns=24
inDegrees=yes

Units are S.I. units (second, meters, Newtons, ...)
Angles are in degrees.

endheader
time	pelvis_tilt	pelvis_list	pelvis_rotation	pelvis_tx	pelvis_ty	pelvis_tz	hip_flexion_r	hip_adduction_r	hip_rotation_r	knee_angle_r	ankle_angle_r	subtalar_angle_r	mtp_angle_r	hip_flexion_l	hip_adduction_l	hip_rotation_l	knee_angle_l	ankle_angle_l	subtalar_angle_l	mtp_angle_l	lumbar_extension	lumbar_bending	lumbar_rotation
      4.05000000	    -18.34310919	      0.50187199	     -6.52781440	     -1.35503036	     -0.00416597	     -0.25104090	      2.36258766	      6.34487027	      9.88104090	     -4.11855148	      1.48947740	     -0.75332999	      5.62121412	     45.36353299	      0.76625370	      7.39534257	    -28.80353349	     17.16124017	      0.76928636	    -83.12550795	     12.67971162	     -0.23306003	      8.30999926
      4.05500000	    -18.52298754	      0.52556398	     -6.73714135	     -1.34830308	     -0.00525974	     -0.25081997	      2.02226879	      6.30689547	      9.78681670	     -4.01580290	      1.46131235	     -0.55463881	      5.69778767	     45.47272793	      0.50260483	      7.82848651	    -26.66185560	     17.33758372	      1.36253994	    -83.07839799	     12.80205802	     -0.13817239	      8.48195475
      4.06000000	    -18.38840386	      0.75109728	     -6.95735776	     -1.34136514	     -0.00591346	     -0.25072394	      1.42117224	      5.97516540	      9.31826089	     -4.00323666	      1.67051619	      0.34880060	      6.42144003	     45.10266188	      0.46030987	      8.25422319	    -24.29387706	     17.28419079	      1.57061261	    -83.03296105	     12.61816940	     -0.27371941	      8.65222549
      4.06500000	    -18.49529070	      0.89332173	     -7.24931228	     -1.33451993	     -0.00700955	     -0.25046250	      1.09928155	      5.79211984	      9.21413889	     -4.04828761	      1.74639635	      0.74681731	      6.98083937	     45.02874368	      0.24296868	      8.67024100	    -22.04997025	     17.31584991	      1.87272362	    -82.94344342	     12.68881346	     -0.28579967	      8.89177626
      4.07000000	    -18.50762769	      0.95673544	     -7.44809087	     -1.32769414	     -0.00811935	     -0.25037381	      0.68022325	      5.66829261	      8.93797108	     -4.09430951	      1.72505660	      1.18363836	      7.96674721	     44.86823869	      0.03544623	      9.23334611	    -19.87403189	     17.27491240	      2.16440258	    -82.71155601	     12.62609681	     -0.24383119	      9.04976395
      4.07500000	    -18.65447866	      1.08084718	     -7.75236180	     -1.32080387	     -0.00947140	     -0.25005139	      0.43428216	      5.51314178	      9.08371735	     -4.22694083	      1.80837857	      1.36031316	      8.39995526	     44.84102430	     -0.23994248	      9.63515527	    -17.74531772	     17.22877042	      2.42454266	    -82.55706016	     12.73699353	     -0.23427709	      9.29674921
      4.08000000	    -18.72901121	      1.18961421	     -8.05162798	     -1.31385463	     -0.01081930	     -0.24978233	      0.13767841	      5.35962067	      9.16657218	     -4.41578940	      1.90553979	      1.60274054	      8.87238860	     44.71002920	     -0.50931318	     10.13556127	    -15.64365383	     17.11157880	      2.48863891	    -82.36400447	     12.76920628	     -0.21295175	      9.55081132
      4.08500000	    -18.72799614	      1.26445425	     -8.29641132	     -1.30687719	     -0.01217007	     -0.24962672	     -0.21893471	      5.22568258	      9.12836793	     -4.63564075	      1.92964105	      1.82554409	      9.73035750	     44.48077925	     -0.74603595	     10.83675292	    -13.58178364	     16.82807752	      2.26667593	    -81.85979850	     12.70921645	     -0.17765558	      9.71532759
      4.09000000	    -18.88270285	      1.37350083	     -8.67639274	     -1.29996935	     -0.01375538	     -0.24920833	     -0.34763619	      5.09305139	      9.48652107	     -4.98938523	      2.09765431	      1.95739226	     10.04650708	     44.50421334	     -1.10666589	     11.07573882	    -11.75814970	     16.69339599	      2.32458809	    -81.67599127	     12.81961513	     -0.13337469	     10.03326159
      4.09500000	    -18.88567288	      1.51520376	     -8.92376305	     -1.29277285	     -0.01523726	     -0.24902918	     -0.67171770	      4.88087617	      9.59788797	     -5.26953519	      2.12352097	      2.03217650	     10.87818638	     44.25420597	     -1.28699143	     11.90758167	     -9.83905451	     16.20787747	      1.61995717	    -80.96226629	     12.80225338	     -0.17148376	     10.24554092
      4.10000000	    -19.02790414	      1.59598044	     -9.32639022	     -1.28584485	     -0.01689380	     -0.24860291	     -0.75741559	      4.77559830	     10.01192612	     -5.73215227	      2.27537425	      2.17925743	     11.13353895	     44.34405962	     -1.67177567	     11.94851669	     -8.36456266	     16.09474876	      1.62626333	    -80.78551101	     12.89344125	     -0.09265130	     10.57652062
      4.10500000	    -19.03708339	      1.82734018	     -9.59273091	     -1.27852171	     -0.01847430	     -0.24851055	     -1.01692865	      4.43277351	     10.12889185	     -6.00671625	      2.05531373	      2.19343092	     13.86030520	     44.15032521	     -1.76255773	     12.71975963	     -6.76846327	     14.89244938	      0.62269216	    -76.66208851	     12.90751322	     -0.20689517	     10.81371903
      4.11000000	    -19.21338788	      1.97979785	     -9.93330301	     -1.27137078	     -0.02024849	     -0.24810670	     -1.05909912	      4.26013606	     10.72895541	     -6.50080792	      2.16583842	      2.02031208	     13.80089294	     44.28605225	     -2.02062601	     12.91624746	     -5.54485242	     14.57668942	      0.19205278	    -76.40437142	     13.07694839	     -0.22358278	     11.12327772
      4.11500000	    -19.26982933	      2.10831552	    -10.25925466	     -1.26417537	     -0.02193275	     -0.24785360	     -1.19412333	      4.07164380	     11.16311512	     -7.05381189	      2.31556180	      2.11983804	     14.05273669	     44.27850206	     -2.24283430	     13.36510471	     -4.43826502	     14.10330629	     -0.57300678	    -75.63682755	     13.10202691	     -0.22483072	     11.42726969
      4.12000000	    -19.38762730	      2.28247221	    -10.62792724	     -1.25692793	     -0.02367671	     -0.24745497	     -1.21741157	      3.85815628	     11.63783193	     -7.68021363	      2.47886623	      2.23032929	     14.23569170	     44.45631961	     -2.44708058	     13.16854372	     -3.69662353	     13.99825390	     -0.71514948	    -75.48905602	     13.21436349	     -0.26536711	     11.80516511
      4.12500000	    -19.50408574	      2.47255103	    -10.91923903	     -1.24946598	     -0.02545096	     -0.24726355	     -1.28115285	      3.60018937	     12.12098247	     -8.20733779	      2.42264229	      2.18394887	     15.19658892	     44.53782342	     -2.55938802	     13.63792958	     -2.92810493	     13.30538933	     -1.67672627	    -74.06093028	     13.35062873	     -0.32633446	     12.08297229
      4.13000000	    -19.56141206	      2.65984536	    -11.30005957	     -1.24205538	     -0.02713274	     -0.24688476	     -1.32684494	      3.35737744	     12.57696561	     -8.90548026	      2.52962349	      2.34384798	     15.40436081	     44.69315807	     -2.69998734	     13.35517018	     -2.58688310	     13.28885840	     -1.76878096	    -73.86426477	     13.41255133	     -0.38879833	     12.51069662
